<svg id="Layer_1" data-name="Layer 1" xmlns="http://www.w3.org/2000/svg" viewBox="0 0 500 500" width="500" height="500" class="illustration"><defs><style>.cls-1{fill:#f2f2f2;}.cls-2{fill:#c3c7c9;opacity:0.26;}.cls-3{fill:#24285b;}.cls-4{fill:#fff;}.cls-5{fill:#f0457d;}.cls-6{fill:#ffd44d;}.cls-7{fill:#0099f5;}.cls-8{fill:#f9bb0d;}.cls-9{fill:#0086f4;}</style></defs><title>Internet security</title><path class="cls-1" d="M447.46,126.33V385.4a14.27,14.27,0,0,1-14.26,14.27H44A14.27,14.27,0,0,1,29.72,385.4V126.33Z"></path><path class="cls-2" d="M29.72,126.33v33.09H425.49V399.67h7.71a14.27,14.27,0,0,0,14.26-14.27V126.33Z"></path><path class="cls-3" d="M447.46,77v63.09H29.72V77A14.26,14.26,0,0,1,44,62.73H433.2A14.26,14.26,0,0,1,447.46,77Z"></path><circle class="cls-4" cx="120.83" cy="98.77" r="6.94"></circle><circle class="cls-4" cx="89.21" cy="98.77" r="6.94"></circle><circle class="cls-4" cx="57.6" cy="98.77" r="6.94"></circle><path class="cls-5" d="M170,267.81v-15.2h13.3v15.2h10v12.71h-10v20.9H170v-20.9H134.32V268.17l30.52-49.76h15.32l-30,49.4Z"></path><path class="cls-5" d="M213.3,290.67q-8.45-11.69-8.44-31.29t8.44-31.29q8.43-11.7,25.41-11.7t25.41,11.7q8.44,11.7,8.44,31.29t-8.44,31.29q-8.43,11.7-25.41,11.7T213.3,290.67Zm10-53.73q-4.94,8.55-4.93,22.44t4.93,22.45q4.93,8.55,15.38,8.55T254,281.89q4.82-8.49,4.81-22.51T254,236.88q-4.82-8.49-15.26-8.5T223.33,236.94Z"></path><path class="cls-5" d="M319.58,267.81v-15.2h13.31v15.2h10v12.71h-10v20.9H319.58v-20.9H284V268.17l30.52-49.76H329.8l-30.05,49.4Z"></path><rect class="cls-6" x="205.05" y="326.35" width="67.31" height="23.09" rx="11.55"></rect><path class="cls-7" d="M470.27,344.31c-34.58-11.54-59.23-34-59.23-34s-24.64,22.46-59.22,34c0,0-2.08,73,59.22,95.79C472.35,417.28,470.27,344.31,470.27,344.31Z"></path><path class="cls-3" d="M413.68,345.16h-5.27a13.32,13.32,0,0,0-13.31,13.31V369a2.77,2.77,0,1,0,5.53,0V358.47a7.79,7.79,0,0,1,7.78-7.78h5.27a7.79,7.79,0,0,1,7.78,7.78V369H427V358.47A13.32,13.32,0,0,0,413.68,345.16Z"></path><rect class="cls-8" x="388.41" y="367.93" width="45.26" height="37.32" rx="3"></rect><rect class="cls-6" x="388.41" y="367.93" width="39.92" height="33.24" rx="3"></rect><path class="cls-3" d="M416.26,383.36a5.39,5.39,0,1,0-8.39,4.48v3.23a3.18,3.18,0,1,0,6.35,0v-3.49A5.37,5.37,0,0,0,416.26,383.36Z"></path><path class="cls-9" d="M470.27,344.31c-34.58-11.54-59.23-34-59.23-34s-3,2.74-8.4,6.8c10,7.56,28.33,19.7,50.82,27.2,0,0,1.88,66.12-50.82,92.16a89.21,89.21,0,0,0,8.4,3.63C472.35,417.28,470.27,344.31,470.27,344.31Z"></path></svg>